<?xml version="1.0" encoding="iso-8859-1"?>
<svg xmlns="http://www.w3.org/2000/svg" xmlns:xlink="http://www.w3.org/1999/xlink" version="1.1" viewBox="0 0 63.135 63.135" enable-background="new 0 0 63.135 63.135" width="512px" height="512px">
  <g>
    <g>
      <path d="m31.942,55.736c-0.576,0-1.042,0.466-1.042,1.042v5.316c0,0.576 0.466,1.042 1.042,1.042s1.042-0.466 1.042-1.042v-5.316c-0.001-0.576-0.467-1.042-1.042-1.042z" fill="#ff487c"/>
    </g>
    <g>
      <path d="m39.597,53.437c-0.366-0.443-1.023-0.502-1.467-0.136-0.441,0.366-0.505,1.023-0.136,1.467l3.408,4.111c0.205,0.248 0.502,0.376 0.802,0.376 0.234,0 0.47-0.079 0.665-0.24 0.441-0.366 0.505-1.023 0.136-1.467l-3.408-4.111z" fill="#ff487c"/>
    </g>
    <g>
      <path d="m24.777,53.12l-4.111,3.406c-0.441,0.366-0.505,1.023-0.136,1.467 0.205,0.248 0.502,0.376 0.802,0.376 0.234,0 0.47-0.079 0.665-0.24l4.111-3.406c0.441-0.366 0.505-1.023 0.136-1.467-0.367-0.443-1.022-0.504-1.467-0.136z" fill="#ff487c"/>
    </g>
    <g>
      <path d="m44.933,23.267v-9.872c0-0.15-0.027-0.295-0.042-0.442 0.015-0.07 0.042-0.136 0.042-0.211 0-0.217-0.082-0.407-0.195-0.574-0.197-0.672-0.537-1.298-1.038-1.812l-8.799-9.071c-1.66-1.713-4.612-1.711-6.268-0.002l-8.801,9.071c-0.501,0.516-0.84,1.142-1.038,1.815-0.113,0.167-0.195,0.357-0.195,0.574 0,0.075 0.028,0.14 0.042,0.211-0.013,0.146-0.041,0.291-0.041,0.441v9.48c-0.042,0.034-0.091,0.053-0.128,0.094l-10.318,11.374c-0.73,0.806-1.133,1.847-1.133,2.98 0,2.409 1.959,4.368 4.366,4.368h7.447c0.164,0.487 0.408,0.945 0.733,1.347l4.266,5.293c0.834,1.033 2.073,1.625 3.399,1.625h9.069c1.326,0 2.565-0.594 3.399-1.627l4.264-5.289c0.325-0.404 0.57-0.863 0.734-1.349h7.047c2.409,0 4.368-1.959 4.368-4.415 0-1.086-0.403-2.128-1.133-2.934l-10.047-11.075zm-24.249,16.556v-26.04h22.166v26.04h-22.166zm9.445-37.09c0.433-0.446 1.015-0.692 1.638-0.692 0.623,0 1.204,0.246 1.638,0.692l8.698,8.967h-20.674l8.7-8.967zm-21.025,34.543c0-0.568 0.21-1.113 0.592-1.534l8.904-9.816v13.681h-7.214c-1.259,0.001-2.282-1.025-2.282-2.331zm28.973,9.747c-0.435,0.541-1.082,0.85-1.776,0.85h-9.069c-0.694,0-1.343-0.311-1.778-0.85l-4.123-5.116h20.872l-4.126,5.116zm13.669-7.415h-6.813v-13.242l8.506,9.376c0.382,0.421 0.592,0.966 0.592,1.581 0,1.259-1.025,2.285-2.285,2.285z" fill="#ff487c"/>
    </g>
    <g>
      <path d="m31.767,22.143c-3.676,0-6.669,2.991-6.669,6.667s2.993,6.669 6.669,6.669 6.667-2.993 6.667-6.669-2.991-6.667-6.667-6.667zm0,11.252c-2.529,0-4.585-2.057-4.585-4.585 0-2.527 2.057-4.583 4.585-4.583 2.527,0 4.583,2.057 4.583,4.583 0,2.528-2.057,4.585-4.583,4.585z" fill="#ff487c"/>
    </g>
  </g>
</svg>
