<?xml version="1.0" encoding="iso-8859-1"?>
<svg xmlns="http://www.w3.org/2000/svg" xmlns:xlink="http://www.w3.org/1999/xlink" version="1.1" viewBox="0 0 63.466 63.466" enable-background="new 0 0 63.466 63.466" width="512px" height="512px">
  <g>
    <g>
      <path d="m25.613,0h-16.482c-0.583,0-1.054,0.472-1.054,1.055v61.357c0,0.583 0.472,1.055 1.055,1.055h16.482c0.583,0 1.055-0.472 1.055-1.055v-61.357c-0.001-0.583-0.473-1.055-1.056-1.055zm-1.055,61.357h-14.372v-4.133h9.23c0.583,0 1.055-0.472 1.055-1.055 0-0.583-0.472-1.055-1.055-1.055h-9.23v-3.867h5.142c0.583,0 1.055-0.472 1.055-1.055s-0.472-1.055-1.055-1.055h-5.142v-4.055h9.23c0.583,0 1.055-0.472 1.055-1.055s-0.472-1.055-1.055-1.055h-9.23v-4.12h5.142c0.583,0 1.055-0.472 1.055-1.055s-0.472-1.055-1.055-1.055h-5.142v-3.956h9.23c0.583,0 1.055-0.472 1.055-1.055 0-0.583-0.472-1.055-1.055-1.055h-9.23v-3.945h5.142c0.583,0 1.055-0.472 1.055-1.055 0-0.583-0.472-1.055-1.055-1.055h-5.142v-4.054h9.23c0.583,0 1.055-0.472 1.055-1.055s-0.472-1.055-1.055-1.055h-9.23v-4.033h5.142c0.583,0 1.055-0.472 1.055-1.055s-0.472-1.055-1.055-1.055h-5.142v-3.788h9.23c0.583,0 1.055-0.472 1.055-1.055s-0.472-1.055-1.055-1.055h-9.23v-4.306h14.372v59.247z" fill="#00e6f9"/>
    </g>
    <g>
      <path d="m55.388,24.751c-0.002-0.154-0.039-0.296-0.099-0.427-0.003-0.008-0.002-0.016-0.006-0.024l-8.645-17.722c-0.7-1.096-2.437-1.202-3.257,0.106l-8.585,17.615c-0.004,0.008-0.002,0.016-0.006,0.024-0.057,0.125-0.09,0.261-0.095,0.406 0,0.01-0.006,0.02-0.006,0.03 0,0.001-0.001,0.001-0.001,0.002v34.594c0,0.276 0.109,0.542 0.303,0.74l3,3.055c0.198,0.202 0.47,0.315 0.752,0.315h12.345c0.268,0 0.527-0.103 0.723-0.286l3.247-3.055c0.212-0.2 0.332-0.478 0.332-0.768v-34.594c0-0.001 0-0.001 0-0.001-0.001-0.004-0.002-0.007-0.002-0.01zm-10.349-16.654l2.925,6h-5.85l2.925-6zm-3.953,8.11h7.826c0.026,0 0.047-0.013 0.073-0.015l3.817,7.831-7.907,1.767-7.623-1.758 3.814-7.825zm-4.288,42.719v-32.838l7.038,1.623v33.646h-4.65l-2.388-2.431zm13.872,2.431h-4.724v-33.64l7.334-1.638v32.823l-2.61,2.455z" fill="#00e6f9"/>
    </g>
  </g>
</svg>
